<svg width="64" height="64" viewBox="0 0 64 64" xmlns="http://www.w3.org/2000/svg" role="img" aria-label="SF6 Relations">
  <rect width="64" height="64" rx="10" fill="#ffffff"/>
  <path d="M16 52V12h20.5c4.9 0 8.8 1.2 11.6 3.5 2.9 2.3 4.3 5.6 4.3 9.7 0 3.1-.8 5.7-2.5 7.8-1.7 2.1-4 3.6-7 4.4L54 52H42.2L32.6 38.8h-5.8V52H16Zm10.8-22h8.7c2 0 3.6-.4 4.6-1.3 1.1-.9 1.6-2.1 1.6-3.7s-.5-2.8-1.6-3.6c-1-.8-2.6-1.2-4.6-1.2h-8.7V30Z" fill="#c91517"/>
  <path d="M13 56h38" stroke="#eb690b" stroke-width="4" stroke-linecap="square"/>
</svg>
